{
    "asset" : {
        "generator" : "Khronos glTF Blender I/O v1.6.16",
        "version" : "2.0"
    },
    "scene" : 0,
    "scenes" : [
        {
            "name" : "Scene",
            "nodes" : [
                0,
                1,
                2,
                3,
                4
            ]
        }
    ],
    "nodes" : [
        {
            "mesh" : 0,
            "name" : "Cube",
            "scale" : [
                0.046407606452703476,
                0.046407606452703476,
                0.046407606452703476
            ],
            "translation" : [
                0.9907782077789307,
                -0.010579347610473633,
                -0.03467489778995514
            ]
        },
        {
            "mesh" : 1,
            "name" : "engine",
            "rotation" : [
                0.032735247164964676,
                0.032735247164964676,
                -0.7063486576080322,
                0.706348717212677
            ],
            "scale" : [
                -0.17205947637557983,
                -0.027171848341822624,
                -0.17205947637557983
            ],
            "translation" : [
                -1.1398799419403076,
                0.23356039822101593,
                -0.42845389246940613
            ]
        },
        {
            "mesh" : 2,
            "name" : "engine.001",
            "rotation" : [
                -0.032735247164964676,
                0.032735247164964676,
                0.7063486576080322,
                0.706348717212677
            ],
            "scale" : [
                -0.17205947637557983,
                0.027171848341822624,
                -0.17205947637557983
            ],
            "translation" : [
                -1.135042428970337,
                -0.17406755685806274,
                -0.42074164748191833
            ]
        },
        {
            "mesh" : 3,
            "name" : "engine.002",
            "rotation" : [
                -0.03273523598909378,
                -0.03273523598909378,
                -0.7063486576080322,
                0.706348717212677
            ],
            "scale" : [
                -0.17205947637557983,
                -0.027171848341822624,
                0.17205947637557983
            ],
            "translation" : [
                -1.1398799419403076,
                0.23356038331985474,
                0.35818231105804443
            ]
        },
        {
            "mesh" : 4,
            "name" : "engine.003",
            "rotation" : [
                0.03273523598909378,
                -0.03273523598909378,
                0.7063486576080322,
                0.706348717212677
            ],
            "scale" : [
                -0.17205947637557983,
                0.027171848341822624,
                0.17205947637557983
            ],
            "translation" : [
                -1.135042428970337,
                -0.17406755685806274,
                0.3402319550514221
            ]
        }
    ],
    "materials" : [
        {
            "doubleSided" : true,
            "name" : "Material",
            "pbrMetallicRoughness" : {
                "baseColorFactor" : [
                    0.800000011920929,
                    0.800000011920929,
                    0.800000011920929,
                    1
                ],
                "metallicFactor" : 0,
                "roughnessFactor" : 0.4000000059604645
            }
        }
    ],
    "meshes" : [
        {
            "name" : "Cube",
            "primitives" : [
                {
                    "attributes" : {
                        "POSITION" : 0,
                        "NORMAL" : 1,
                        "TEXCOORD_0" : 2
                    },
                    "indices" : 3,
                    "material" : 0
                }
            ]
        },
        {
            "name" : "Cylinder",
            "primitives" : [
                {
                    "attributes" : {
                        "POSITION" : 4,
                        "NORMAL" : 5,
                        "TEXCOORD_0" : 6
                    },
                    "indices" : 7
                }
            ]
        },
        {
            "name" : "Cylinder.003",
            "primitives" : [
                {
                    "attributes" : {
                        "POSITION" : 8,
                        "NORMAL" : 9,
                        "TEXCOORD_0" : 10
                    },
                    "indices" : 7
                }
            ]
        },
        {
            "name" : "Cylinder.004",
            "primitives" : [
                {
                    "attributes" : {
                        "POSITION" : 11,
                        "NORMAL" : 12,
                        "TEXCOORD_0" : 13
                    },
                    "indices" : 7
                }
            ]
        },
        {
            "name" : "Cylinder.005",
            "primitives" : [
                {
                    "attributes" : {
                        "POSITION" : 14,
                        "NORMAL" : 15,
                        "TEXCOORD_0" : 16
                    },
                    "indices" : 7
                }
            ]
        }
    ],
    "accessors" : [
        {
            "bufferView" : 0,
            "componentType" : 5126,
            "count" : 184,
            "max" : [
                1,
                4.6585893630981445,
                3.6585891246795654
            ],
            "min" : [
                -65.139404296875,
                -2.6585891246795654,
                -3.6585891246795654
            ],
            "type" : "VEC3"
        },
        {
            "bufferView" : 1,
            "componentType" : 5126,
            "count" : 184,
            "type" : "VEC3"
        },
        {
            "bufferView" : 2,
            "componentType" : 5126,
            "count" : 184,
            "type" : "VEC2"
        },
        {
            "bufferView" : 3,
            "componentType" : 5123,
            "count" : 300,
            "type" : "SCALAR"
        },
        {
            "bufferView" : 4,
            "componentType" : 5126,
            "count" : 5688,
            "max" : [
                1.1771981716156006,
                41.762168884277344,
                6.1023030281066895
            ],
            "min" : [
                -1.1771981716156006,
                -30.20714569091797,
                -1.4472301006317139
            ],
            "type" : "VEC3"
        },
        {
            "bufferView" : 5,
            "componentType" : 5126,
            "count" : 5688,
            "type" : "VEC3"
        },
        {
            "bufferView" : 6,
            "componentType" : 5126,
            "count" : 5688,
            "type" : "VEC2"
        },
        {
            "bufferView" : 7,
            "componentType" : 5123,
            "count" : 8922,
            "type" : "SCALAR"
        },
        {
            "bufferView" : 8,
            "componentType" : 5126,
            "count" : 5688,
            "max" : [
                1.1771981716156006,
                41.762168884277344,
                6.1023030281066895
            ],
            "min" : [
                -1.1771981716156006,
                -30.20714569091797,
                -1.4472301006317139
            ],
            "type" : "VEC3"
        },
        {
            "bufferView" : 9,
            "componentType" : 5126,
            "count" : 5688,
            "type" : "VEC3"
        },
        {
            "bufferView" : 10,
            "componentType" : 5126,
            "count" : 5688,
            "type" : "VEC2"
        },
        {
            "bufferView" : 11,
            "componentType" : 5126,
            "count" : 5688,
            "max" : [
                1.1771981716156006,
                41.762168884277344,
                6.1023030281066895
            ],
            "min" : [
                -1.1771981716156006,
                -30.20714569091797,
                -1.4472301006317139
            ],
            "type" : "VEC3"
        },
        {
            "bufferView" : 12,
            "componentType" : 5126,
            "count" : 5688,
            "type" : "VEC3"
        },
        {
            "bufferView" : 13,
            "componentType" : 5126,
            "count" : 5688,
            "type" : "VEC2"
        },
        {
            "bufferView" : 14,
            "componentType" : 5126,
            "count" : 5688,
            "max" : [
                1.1771981716156006,
                41.762168884277344,
                6.1023030281066895
            ],
            "min" : [
                -1.1771981716156006,
                -30.20714569091797,
                -1.4472301006317139
            ],
            "type" : "VEC3"
        },
        {
            "bufferView" : 15,
            "componentType" : 5126,
            "count" : 5688,
            "type" : "VEC3"
        },
        {
            "bufferView" : 16,
            "componentType" : 5126,
            "count" : 5688,
            "type" : "VEC2"
        }
    ],
    "bufferViews" : [
        {
            "buffer" : 0,
            "byteLength" : 2208,
            "byteOffset" : 0
        },
        {
            "buffer" : 0,
            "byteLength" : 2208,
            "byteOffset" : 2208
        },
        {
            "buffer" : 0,
            "byteLength" : 1472,
            "byteOffset" : 4416
        },
        {
            "buffer" : 0,
            "byteLength" : 600,
            "byteOffset" : 5888
        },
        {
            "buffer" : 0,
            "byteLength" : 68256,
            "byteOffset" : 6488
        },
        {
            "buffer" : 0,
            "byteLength" : 68256,
            "byteOffset" : 74744
        },
        {
            "buffer" : 0,
            "byteLength" : 45504,
            "byteOffset" : 143000
        },
        {
            "buffer" : 0,
            "byteLength" : 17844,
            "byteOffset" : 188504
        },
        {
            "buffer" : 0,
            "byteLength" : 68256,
            "byteOffset" : 206348
        },
        {
            "buffer" : 0,
            "byteLength" : 68256,
            "byteOffset" : 274604
        },
        {
            "buffer" : 0,
            "byteLength" : 45504,
            "byteOffset" : 342860
        },
        {
            "buffer" : 0,
            "byteLength" : 68256,
            "byteOffset" : 388364
        },
        {
            "buffer" : 0,
            "byteLength" : 68256,
            "byteOffset" : 456620
        },
        {
            "buffer" : 0,
            "byteLength" : 45504,
            "byteOffset" : 524876
        },
        {
            "buffer" : 0,
            "byteLength" : 68256,
            "byteOffset" : 570380
        },
        {
            "buffer" : 0,
            "byteLength" : 68256,
            "byteOffset" : 638636
        },
        {
            "buffer" : 0,
            "byteLength" : 45504,
            "byteOffset" : 706892
        }
    ],
    "buffers" : [
        {
            "byteLength" : 752396,
            "uri" : "data:application/octet-stream;base64,"
        }
    ]
}
